<?xml version="1.0" encoding="UTF-8" standalone="no"?>
<svg
   version="1.1"
   width="800"
   height="800"
   id="svg7"
   sodipodi:docname="icon.svg"
   inkscape:export-filename="icon.svg"
   inkscape:export-xdpi="96"
   inkscape:export-ydpi="96"
   inkscape:version="1.4.4 (dcaf3e7d9e, 2026-05-05)"
   xmlns:inkscape="http://www.inkscape.org/namespaces/inkscape"
   xmlns:sodipodi="http://sodipodi.sourceforge.net/DTD/sodipodi-0.dtd"
   xmlns="http://www.w3.org/2000/svg"
   xmlns:svg="http://www.w3.org/2000/svg">
  <defs
     id="defs7" />
  <sodipodi:namedview
     id="namedview7"
     pagecolor="#ffffff"
     bordercolor="#111111"
     borderopacity="1"
     inkscape:showpageshadow="0"
     inkscape:pageopacity="0"
     inkscape:pagecheckerboard="1"
     inkscape:deskcolor="#d1d1d1"
     inkscape:zoom="1"
     inkscape:cx="399.5"
     inkscape:cy="400"
     inkscape:window-width="1920"
     inkscape:window-height="1011"
     inkscape:window-x="0"
     inkscape:window-y="0"
     inkscape:window-maximized="1"
     inkscape:current-layer="svg7">
    <inkscape:page
       x="0"
       y="0"
       width="800"
       height="800"
       id="page2"
       margin="0"
       bleed="0" />
  </sodipodi:namedview>
  <path
     d="m 0,0 c 264,0 528,0 799.99999,0 0,264.00001 0,528.00001 0,800.00002 -263.99999,0 -527.99999,0 -799.99999,0 C 0,536.00001 0,272 0,0 Z"
     fill="#060707"
     id="path1"
     style="stroke-width:0.637958;fill:#090f0c;fill-opacity:1" />
  <path
     d="m 94.99999,130.00002 c 6.47332,1.01601 12.90599,2.1587 19.32422,3.48047 91.30236,18.78631 185.56386,22.96188 278.55932,22.78027 5.87494,-0.0114 11.7497,-0.005 17.62463,0.007 42.9908,0.071 85.98696,-0.89999 128.86683,-4.14262 2.38485,-0.17465 4.76969,-0.34929 7.15454,-0.52392 46.23205,-3.43501 91.77079,-9.34883 137.34546,-17.8667 1.23572,-0.23067 1.23572,-0.23067 2.4964,-0.466 4.93889,-0.92934 9.85835,-1.91979 14.7536,-3.06037 2.18482,-0.2424 3.76914,0.2182 5.875,0.79197 -4.68845,13.4228 -9.39533,26.83896 -14.14429,40.24048 -0.70227,1.98387 -1.40309,3.96826 -2.10254,5.95312 -1.03276,2.93019 -2.07021,5.85868 -3.10864,8.78687 -0.30737,0.87513 -0.61475,1.75025 -0.93144,2.6519 -5.33494,14.98948 -5.33494,14.98948 -7.71309,17.36763 -1.90589,0.28922 -3.82119,0.5167 -5.73828,0.71875 -1.20439,0.12721 -2.40878,0.25443 -3.64966,0.3855 -1.94266,0.19589 -1.94266,0.19589 -3.92456,0.39575 -1.30606,0.13382 -2.61212,0.26764 -3.95776,0.40552 -10.56846,1.04965 -21.11706,1.73619 -31.72974,2.09448 -0.31131,1.4792 -0.31131,1.4792 -0.62891,2.98828 -2.12705,9.91719 -4.52542,19.75292 -7.05859,29.57422 -0.30946,1.20761 -0.61891,2.41522 -0.93774,3.65942 -0.29254,1.12431 -0.58508,2.24861 -0.88648,3.40699 -0.26256,1.01135 -0.52513,2.0227 -0.79565,3.06469 -0.69263,2.3064 -0.69263,2.3064 -1.69263,3.3064 -2.07085,0.15843 -4.14678,0.25124 -6.22266,0.31641 -1.89008,0.0628 -1.89008,0.0628 -3.81836,0.12695 -1.34049,0.0398 -2.68098,0.0795 -4.02148,0.11914 -1.34442,0.0432 -2.68882,0.0868 -4.0332,0.13086 -3.30132,0.10649 -6.60272,0.2085 -9.9043,0.30664 0.0606,0.76441 0.12117,1.52883 0.18359,2.31641 0.27852,3.56073 0.54748,7.12212 0.81641,10.68359 0.14309,1.80211 0.14309,1.80211 0.28906,3.64062 0.68512,9.20015 0.71094,18.071 0.71094,27.35938 20.79,0 41.58,0 63,0 0,17.16 0,34.32 0,52 -20.13,0 -40.26,0 -61,0 0.008,13.21503 0.008,13.21503 0.0159,26.69702 0.016,28.15565 0.0272,56.3113 0.0352,84.46696 10e-4,4.3699 0.003,8.7398 0.004,13.1097 4e-4,1.30501 4e-4,1.30501 8e-4,2.63639 0.004,14.10605 0.0122,28.2121 0.0214,42.31815 0.009,14.46303 0.0149,28.92607 0.0169,43.3891 10e-4,8.93185 0.006,17.86369 0.0138,26.79554 0.005,6.11635 0.007,12.23269 0.006,18.34905 -6.4e-4,3.53422 3.8e-4,7.06842 0.006,10.60264 0.006,3.82258 0.004,7.64513 10e-4,11.46771 0.004,1.69403 0.004,1.69403 0.009,3.42228 -0.002,1.01566 -0.004,2.03132 -0.006,3.07776 3.8e-4,0.88361 7.6e-4,1.76722 10e-4,2.6776 -0.125,1.9901 -0.125,1.9901 -1.125,2.9901 -19.47,0 -38.94,0 -59,0 0,-96.36 0,-192.72 0,-292 -88.11,0 -176.22,0 -267,0 0,96.36 0,192.72 0,292 -19.8,0 -39.6,0 -60,0 0,-96.36 0,-192.72 0,-292 -20.46,0 -40.92,0 -62,0 -0.0206,-8.39438 -0.0412,-16.78875 -0.0625,-25.4375 -0.009,-2.65345 -0.0182,-5.30691 -0.0276,-8.04077 -0.003,-2.08928 -0.005,-4.17855 -0.008,-6.26782 -0.005,-1.09607 -0.0102,-2.19214 -0.0155,-3.32141 -1.8e-4,-1.55298 -1.8e-4,-1.55298 -3.7e-4,-3.13733 -0.002,-0.90379 -0.004,-1.80758 -0.007,-2.73876 0.12026,-2.05641 0.12026,-2.05641 1.12026,-3.05641 1.93224,-0.12357 3.86894,-0.17794 5.80493,-0.20532 1.24121,-0.0199 2.48242,-0.0399 3.76125,-0.0604 1.36466,-0.017 2.72932,-0.0339 4.09398,-0.0506 1.38863,-0.0206 2.77725,-0.0416 4.16588,-0.063 3.6611,-0.0553 7.32226,-0.10467 10.98347,-0.15285 3.73347,-0.0502 7.46686,-0.10582 11.20026,-0.16113 7.33001,-0.10824 14.66007,-0.20721 21.99023,-0.3067 0.99,-14.52 1.98,-29.04 3,-44 -9.57,0 -19.14,0 -29,0 -4,-15 -8,-30 -12,-45 -2.87107,-0.78747 -5.62072,-1.22259 -8.58496,-1.48071 -1.35095,-0.12001 -1.35095,-0.12001 -2.72919,-0.24245 -0.96367,-0.0823 -1.92735,-0.16467 -2.92022,-0.2495 -1.48975,-0.13105 -1.48975,-0.13105 -3.00959,-0.26475 -3.16842,-0.27804 -6.33722,-0.55162 -9.50604,-0.82509 -2.14976,-0.18786 -4.2995,-0.37601 -6.44922,-0.56445 -5.26664,-0.46105 -10.53358,-0.91844 -15.80078,-1.37305 -5.11046,-11.57858 -9.23376,-23.53041 -13.5,-35.4375 -1.12396,-3.13164 -2.24881,-6.26296 -3.37524,-9.39371 -0.72205,-2.00725 -1.44262,-4.01503 -2.16163,-6.02337 -2.269606,-6.31482 -4.661462,-12.55396 -7.265864,-18.73941 -0.756798,-2.61143 -0.6308,-3.88775 0.302734,-6.40601 z"
     fill="#334f3c"
     id="path2" />
  <path
     d="m 94.99999,130.00002 c 6.47332,1.01601 12.90599,2.1587 19.32422,3.48047 91.30236,18.78631 185.56386,22.96188 278.55932,22.78027 5.87494,-0.0114 11.7497,-0.005 17.62463,0.007 42.9908,0.071 85.98696,-0.89999 128.86683,-4.14262 2.38485,-0.17465 4.76969,-0.34929 7.15454,-0.52392 46.23205,-3.43501 91.77079,-9.34883 137.34546,-17.8667 1.23572,-0.23067 1.23572,-0.23067 2.4964,-0.466 4.93889,-0.92934 9.85835,-1.91979 14.7536,-3.06037 2.18482,-0.2424 3.76914,0.2182 5.875,0.79197 -4.68845,13.4228 -9.39533,26.83896 -14.14429,40.24048 -0.70227,1.98387 -1.40309,3.96826 -2.10254,5.95312 -1.03276,2.93019 -2.07021,5.85868 -3.10864,8.78687 -0.30737,0.87513 -0.61475,1.75025 -0.93144,2.6519 -5.33494,14.98948 -5.33494,14.98948 -7.71309,17.36763 -4.20554,0.65322 -8.45396,1.0082 -12.6875,1.4375 -1.12729,0.12182 -2.25457,0.24363 -3.41602,0.36914 -23.64213,2.43616 -47.40853,3.54922 -71.15735,4.24442 -2.08966,0.0612 -4.17927,0.12395 -6.26888,0.18672 -32.47118,0.96303 -64.93584,1.04397 -97.41883,1.00106 -8.38632,-0.0108 -16.77264,-0.0103 -25.15897,-0.01 -14.99166,4.9e-4 -29.98331,-0.008 -44.97497,-0.0232 -14.40821,-0.0141 -28.81639,-0.0212 -43.22461,-0.0205 -1.33798,6e-5 -1.33798,6e-5 -2.70299,1.2e-4 -0.89076,4e-5 -1.78152,8e-5 -2.69927,1.2e-4 -16.64066,7e-4 -33.28131,-0.005 -49.92196,-0.0142 -4.97929,-0.003 -9.95858,-0.004 -14.93787,-0.004 -88.43651,-0.007 -88.43651,-0.007 -127.99328,-2.54214 -1.03397,-0.0637 -2.06794,-0.1274 -3.13324,-0.19302 -17.47787,-1.07716 -34.89935,-2.50017 -52.30426,-4.43198 -5.11046,-11.57858 -9.23376,-23.53041 -13.5,-35.4375 -1.12396,-3.13164 -2.24881,-6.26296 -3.37524,-9.39371 -0.72205,-2.00725 -1.44262,-4.01503 -2.16163,-6.02337 -2.269606,-6.31482 -4.661462,-12.55396 -7.265864,-18.73941 -0.756798,-2.61143 -0.6308,-3.88775 0.302734,-6.40601 z"
     fill="#62846b"
     id="path3" />
  <path
     d="m 169.99999,210.00002 c 7.51521,-0.10874 14.96166,0.005 22.4603,0.46941 8.76384,0.51063 17.52403,0.86022 26.29995,1.08259 0.81767,0.0209 1.63534,0.0418 2.47779,0.0634 28.5403,0.7001 57.099,0.54961 85.64611,0.55188 5.00726,5e-4 10.01452,0.003 15.02178,0.005 16.69465,0.009 33.3893,0.0134 50.08395,0.0127 0.89199,-4e-5 1.78397,-8e-5 2.70299,-1.2e-4 1.33971,-7e-5 1.33971,-7e-5 2.70648,-1.3e-4 14.3991,-4e-4 28.79818,0.009 43.19727,0.0233 14.96069,0.0146 29.92137,0.0213 44.88207,0.0204 8.32821,-3.3e-4 16.6564,0.002 24.98461,0.0132 40.10321,0.0506 80.13341,-0.45531 120.21163,-1.94301 6.44551,-0.233 12.87534,-0.3551 19.32507,-0.29902 -2.29888,10.92324 -4.89956,21.75343 -7.6875,32.5625 -0.46418,1.81142 -0.46418,1.81142 -0.93774,3.65942 -0.29254,1.12431 -0.58508,2.24861 -0.88648,3.40699 -0.39385,1.51702 -0.39385,1.51702 -0.79565,3.06469 -0.69263,2.3064 -0.69263,2.3064 -1.69263,3.3064 -3.56496,0.39721 -7.16671,0.43696 -10.75,0.5625 -1.76102,0.0637 -1.76102,0.0637 -3.55762,0.12866 -22.2176,0.67843 -44.46745,0.39085 -66.69238,0.30884 -0.0553,1.04865 -0.1107,2.0973 -0.16772,3.17773 -0.20774,3.92138 -0.41925,7.84256 -0.63184,11.76368 -0.0912,1.69135 -0.18137,3.38275 -0.27051,5.07421 -0.12891,2.44286 -0.26151,4.8855 -0.39477,7.32813 -0.0579,1.11925 -0.0579,1.11925 -0.11693,2.26111 -0.06,1.08021 -0.06,1.08021 -0.12111,2.18225 -0.0333,0.62177 -0.0666,1.24354 -0.10094,1.88415 -0.29095,3.45369 -0.76629,6.88958 -1.19618,10.32874 -88.11,0 -176.22,0 -267,0 -1.125,-7.875 -1.125,-7.875 -1.29712,-11.19116 -0.0607,-1.12554 -0.0607,-1.12554 -0.12268,-2.27381 -0.0571,-1.14462 -0.0571,-1.14462 -0.11536,-2.31237 -0.0383,-0.72031 -0.0766,-1.44061 -0.11609,-2.18274 -0.1405,-2.65896 -0.27557,-5.31821 -0.41125,-7.97742 -0.30937,-5.96062 -0.61875,-11.92125 -0.9375,-18.0625 -17.16,0 -34.32,0 -52,0 0,1.98 0,3.96 0,6 -0.33,0 -0.66,0 -1,0 0,-2.31 0,-4.62 0,-7 -9.57,0 -19.14,0 -29,0 -8.88383,-33.16629 -8.88383,-33.16629 -12,-46 z"
     fill="#2c4434"
     id="path4" />
  <path
     d="m 266.86185,255.87582 c 1.23428,5.7e-4 1.23428,5.7e-4 2.4935,0.001 0.94599,-0.002 1.89198,-0.004 2.86664,-0.006 1.05153,0.003 2.10307,0.006 3.18646,0.009 1.1075,-8.5e-4 2.215,-0.002 3.35606,-0.003 3.742,-0.002 7.48396,0.004 11.22596,0.009 2.67006,2.8e-4 5.34013,1.7e-4 8.01019,-4.4e-4 5.76439,-5.2e-4 11.52877,0.003 17.29316,0.008 8.33442,0.008 16.66885,0.0107 25.00328,0.012 13.52068,0.002 27.04135,0.009 40.56202,0.0183 13.13737,0.009 26.27474,0.0163 39.41211,0.0205 0.80921,2.6e-4 1.61843,5.2e-4 2.45216,7.9e-4 4.05942,10e-4 8.11883,0.003 12.17824,0.004 33.69946,0.0104 67.39891,0.028 101.09836,0.0503 1.20503,3.61508 0.93847,6.71392 0.69531,10.44922 -0.0434,0.73144 -0.0869,1.46289 -0.13162,2.2165 -0.0932,1.54934 -0.18918,3.09851 -0.28781,4.64751 -0.14919,2.34772 -0.28949,4.69583 -0.42822,7.04419 -0.0919,1.5098 -0.18435,3.01956 -0.27735,4.5293 -0.0417,0.693 -0.0834,1.38601 -0.12643,2.10002 -0.30408,4.71967 -0.85491,9.30149 -1.44388,14.01326 -88.11,0 -176.22,0 -267,0 -1.1255,-7.87849 -1.1255,-7.87849 -1.31299,-11.17529 -0.0432,-0.73702 -0.0864,-1.47403 -0.13089,-2.23337 -0.0417,-0.77007 -0.0834,-1.54013 -0.12643,-2.33353 -0.0454,-0.80898 -0.0907,-1.61795 -0.13742,-2.45145 -0.094,-1.69578 -0.18632,-3.39166 -0.27713,-5.08761 -0.14086,-2.60715 -0.29067,-5.21369 -0.44092,-7.82031 -0.0904,-1.65102 -0.18025,-3.30206 -0.26953,-4.95313 -0.0458,-0.78221 -0.0915,-1.56442 -0.1387,-2.37033 -0.0954,-1.8567 -0.13635,-3.71607 -0.16599,-5.57498 1,-1 1,-1 2.86186,-1.1242 z"
     fill="#060707"
     id="path5"
     style="fill:#090f0c;fill-opacity:1" />
</svg>
